<svg width="32" height="32" viewBox="0 0 32 32" fill="none" xmlns="http://www.w3.org/2000/svg">
  <!-- Fond avec dégradé -->
  <rect width="32" height="32" rx="8" fill="url(#gradient)"/>
  
  <!-- Icône Palette -->
  <g fill="white" transform="translate(6, 6) scale(0.65)">
    <circle cx="10" cy="12" r="2"/>
    <circle cx="16" cy="9" r="2"/>
    <circle cx="22" cy="12" r="2"/>
    <circle cx="23" cy="18" r="2"/>
    <circle cx="19" cy="23" r="2"/>
    <path d="M16.54 2A14 14 0 0 0 2 16a4.82 4.82 0 0 0 6.09 4.65l1.12-.31a3 3 0 0 1 3.79 2.9V27a3 3 0 0 0 3 3a14 14 0 0 0 14-14.54A14.05 14.05 0 0 0 16.54 2m8.11 22.31A11.93 11.93 0 0 1 16 28a1 1 0 0 1-1-1v-3.76a5 5 0 0 0-5-5a5 5 0 0 0-1.33.18l-1.12.31A2.82 2.82 0 0 1 4 16A12 12 0 0 1 16.47 4A12.18 12.18 0 0 1 28 15.53a11.9 11.9 0 0 1-3.35 8.79Z"/>
  </g>
  
  <!-- Définition du dégradé -->
  <defs>
    <linearGradient id="gradient" x1="0" y1="0" x2="32" y2="32" gradientUnits="userSpaceOnUse">
      <stop offset="0%" stop-color="#9333EA"/>
      <stop offset="100%" stop-color="#EC4899"/>
    </linearGradient>
  </defs>
</svg>